<?xml version="1.0" encoding="UTF-8" standalone="no"?>
<svg
   id="Layer_1"
   data-name="Layer 1"
   viewBox="0 0 121.67 142.6877"
   version="1.1"
   sodipodi:docname="Brave-logo.svg"
   width="121.67"
   height="142.6877"
   inkscape:version="1.1.1 (c3084ef, 2021-09-22)"
   xmlns:inkscape="http://www.inkscape.org/namespaces/inkscape"
   xmlns:sodipodi="http://sodipodi.sourceforge.net/DTD/sodipodi-0.dtd"
   xmlns="http://www.w3.org/2000/svg"
   xmlns:svg="http://www.w3.org/2000/svg">
  <sodipodi:namedview
     id="namedview866"
     pagecolor="#ffffff"
     bordercolor="#666666"
     borderopacity="1.0"
     inkscape:pageshadow="2"
     inkscape:pageopacity="0.0"
     inkscape:pagecheckerboard="0"
     showgrid="false"
     inkscape:zoom="2.4740795"
     inkscape:cx="44.258885"
     inkscape:cy="78.615096"
     inkscape:window-width="1800"
     inkscape:window-height="1097"
     inkscape:window-x="0"
     inkscape:window-y="44"
     inkscape:window-maximized="1"
     inkscape:current-layer="Layer_1" />
  <defs
     id="defs843">
    <style
       id="style824">.cls-1{fill:#fff;}.cls-2{fill:url(#linear-gradient);}.cls-3{fill:#77777a;}</style>
    <linearGradient
       id="linear-gradient"
       x1="168.37"
       y1="199.89999"
       x2="289.95999"
       y2="199.89999"
       gradientUnits="userSpaceOnUse"
       gradientTransform="translate(-168.33,-128.55)">
      <stop
         offset="0"
         stop-color="#f1562b"
         id="stop826" />
      <stop
         offset="0.3"
         stop-color="#f1542b"
         id="stop828" />
      <stop
         offset="0.41"
         stop-color="#f04d2a"
         id="stop830" />
      <stop
         offset="0.49"
         stop-color="#ef4229"
         id="stop832" />
      <stop
         offset="0.5"
         stop-color="#ef4029"
         id="stop834" />
      <stop
         offset="0.56"
         stop-color="#e83e28"
         id="stop836" />
      <stop
         offset="0.67"
         stop-color="#e13c26"
         id="stop838" />
      <stop
         offset="1"
         stop-color="#df3c26"
         id="stop840" />
    </linearGradient>
  </defs>
  <title
     id="title845">brave_logo_2color_reversed</title>
  <path
     class="cls-2"
     d="m 121.67,46.16 -4.4,-11.95 3.06,-6.86 a 2.35,2.35 0 0 0 -0.48,-2.61 l -8.32,-8.41 a 13.43,13.43 0 0 0 -14,-3.25 L 95.2,13.89 82.49,0.12 60.93,0 h -0.14 l -21.7,0.17 -12.7,13.88 -2.26,-0.8 A 13.47,13.47 0 0 0 10.04,16.53 L 1.57,25.1 A 1.87,1.87 0 0 0 1.19,27.18 L 4.38,34.3 0,46.24 2.83,57.01 15.74,106.09 a 25,25 0 0 0 9.67,14 c 0,0 15.67,11.05 31.13,21.09 a 6.9,6.9 0 0 0 8.61,0 C 82.52,129.8 96.26,120.05 96.26,120.05 a 25,25 0 0 0 9.66,-14 l 12.84,-49.1 z"
     id="path857"
     style="fill:url(#linear-gradient)" />
  <path
     class="cls-1"
     d="m 64.39,88.45 a 18.42,18.42 0 0 0 -2.54,-0.92 h -1.53 a 18.42,18.42 0 0 0 -2.54,0.92 l -3.85,1.6 c -1.22,0.51 -3.18,1.42 -4.35,2 l -7.08,3.69 a 1.35,1.35 0 0 0 -0.17,2.5 l 6.15,4.34 c 1.08,0.76 2.78,2.1 3.78,3 l 1.73,1.49 c 1,0.86 2.63,2.29 3.62,3.17 l 1.64,1.45 a 2.82,2.82 0 0 0 3.61,0 l 1.72,-1.5 3.62,-3.16 1.74,-1.52 c 1,-0.87 2.69,-2.21 3.77,-3 l 6.15,-4.4 A 1.34,1.34 0 0 0 79.67,95.62 L 72.6,92.03 c -1.18,-0.6 -3.14,-1.5 -4.37,-2 z"
     id="path859" />
  <path
     class="cls-1"
     d="m 107.99,48.83 0.2,-0.64 a 16.84,16.84 0 0 0 -0.16,-2.56 21.57,21.57 0 0 0 -2.28,-4.3 l -4,-5.87 c -0.74,-1.1 -2,-2.84 -2.85,-3.87 l -5.36,-6.71 a 18.74,18.74 0 0 0 -1.59,-1.86 h -0.11 c 0,0 -1.08,0.19 -2.38,0.44 l -8.19,1.58 -3.59,0.69 A 9.33,9.33 0 0 1 74.17,25.22 L 67.7,23.13 c -1.26,-0.41 -3.34,-1 -4.63,-1.28 a 19.35,19.35 0 0 0 -4.09,0 c -1.29,0.3 -3.37,0.88 -4.63,1.29 l -6.47,2.1 a 9.33,9.33 0 0 1 -3.51,0.51 l -3.59,-0.68 -8.2,-1.57 c -1.3,-0.25 -2.37,-0.45 -2.38,-0.44 h -0.11 a 18.74,18.74 0 0 0 -1.59,1.86 l -5.35,6.71 c -0.82,1 -2.11,2.78 -2.85,3.87 l -4,5.87 a 31.45,31.45 0 0 0 -1.89,3.15 14.32,14.32 0 0 0 -0.54,3.72 l 0.2,0.64 a 9.49,9.49 0 0 0 0.37,1.21 c 0.83,1 2.25,2.66 3.16,3.63 l 14,14.88 a 4,4 0 0 1 0.71,4 l -2.29,5.43 a 7.05,7.05 0 0 0 -0.11,4.47 l 0.46,1.26 a 12.15,12.15 0 0 0 3.73,5.23 l 2.2,1.79 a 4.16,4.16 0 0 0 4,0.48 l 7.82,-3.73 a 19.88,19.88 0 0 0 4,-2.65 l 6.26,-5.65 a 2.51,2.51 0 0 0 0.13,-3.6 L 44.38,66.11 A 2.74,2.74 0 0 1 43.52,62.64 L 49,52.34 a 5.35,5.35 0 0 0 0.27,-4.09 6.25,6.25 0 0 0 -3.11,-2.82 L 28.98,38.94 c -1.24,-0.47 -1.17,-1 0.14,-1.08 l 10.09,-1 a 15.57,15.57 0 0 1 4.71,0.42 l 8.78,2.45 a 2.69,2.69 0 0 1 1.88,3 l -3.45,18.84 a 9.74,9.74 0 0 0 -0.17,3.18 c 0.14,0.45 1.32,1 2.61,1.32 l 5.35,1.14 a 13,13 0 0 0 4.7,0 l 4.81,-1.09 c 1.29,-0.29 2.46,-0.9 2.61,-1.35 A 9.73,9.73 0 0 0 70.86,61.59 L 67.39,42.75 a 2.69,2.69 0 0 1 1.88,-3 l 8.78,-2.46 a 15.56,15.56 0 0 1 4.71,-0.42 l 10.09,0.94 c 1.32,0.12 1.38,0.61 0.15,1.08 L 75.83,45.4 a 6.25,6.25 0 0 0 -3.11,2.82 5.36,5.36 0 0 0 0.27,4.09 l 5.49,10.3 a 2.74,2.74 0 0 1 -0.86,3.47 L 63.5,75.62 a 2.51,2.51 0 0 0 0.13,3.6 l 6.27,5.65 a 19.88,19.88 0 0 0 4,2.64 l 7.82,3.72 a 4.16,4.16 0 0 0 4,-0.49 l 2.2,-1.8 a 12.14,12.14 0 0 0 3.73,-5.24 l 0.46,-1.26 A 7.05,7.05 0 0 0 92,77.97 l -2.3,-5.43 a 4,4 0 0 1 0.71,-4 l 14,-14.9 c 0.91,-1 2.32,-2.6 3.15,-3.63 a 9.49,9.49 0 0 0 0.43,-1.18 z"
     id="path861" />
</svg>
