<svg width="88" height="80" viewBox="0 0 88 80" fill="none" xmlns="http://www.w3.org/2000/svg">
<path d="M43.8484 0C51.7577 0 59.052 1.83298 65.7313 5.49894C72.4107 9.1649 77.6993 14.1389 81.5971 20.4208C85.495 26.7028 87.4439 33.5631 87.4439 41.0018C87.4439 49.9354 84.6719 57.9702 79.1279 65.1064C73.5838 72.2425 66.422 77.1809 57.6423 79.9215C56.6205 80.0994 55.8637 79.9749 55.3717 79.5478C54.8798 79.1207 54.6338 78.5868 54.6338 77.9461C54.6338 77.8394 54.6432 76.478 54.6622 73.862C54.6811 71.246 54.6905 68.8524 54.6905 66.6813C54.6905 63.2289 53.7066 60.7019 51.7388 59.1003C53.8958 58.8867 55.8353 58.5664 57.5572 58.1393C59.279 57.7122 61.0577 57.0181 62.8931 56.0572C64.7285 55.0962 66.2611 53.9127 67.491 52.5069C68.7209 51.101 69.7238 49.2324 70.4996 46.9012C71.2754 44.5699 71.6633 41.8916 71.6633 38.8663C71.6633 34.6309 70.1684 30.9649 67.1788 27.8684C68.579 24.6296 68.4277 20.9992 66.7247 16.9773C65.6651 16.657 64.1324 16.8527 62.1267 17.5646C60.1211 18.2764 58.3803 19.0594 56.9044 19.9136L54.7473 21.1949C51.2279 20.2696 47.5949 19.8069 43.8484 19.8069C40.1019 19.8069 36.469 20.2696 32.9496 21.1949C32.3441 20.8034 31.5399 20.3229 30.537 19.7535C29.5342 19.184 27.9542 18.4989 25.7972 17.698C23.6401 16.8972 22.0318 16.657 20.9721 16.9773C19.2692 20.9992 19.1178 24.6296 20.518 27.8684C17.5284 30.9649 16.0336 34.6309 16.0336 38.8663C16.0336 41.8916 16.4215 44.561 17.1973 46.8745C17.9731 49.1879 18.9664 51.0565 20.1774 52.4802C21.3884 53.9039 22.9116 55.0962 24.747 56.0572C26.5824 57.0181 28.3611 57.7122 30.0829 58.1393C31.8048 58.5664 33.7443 58.8867 35.9013 59.1003C34.4254 60.3816 33.4983 62.2145 33.1198 64.5992C32.3251 64.9551 31.4737 65.2221 30.5654 65.4C29.6572 65.578 28.5786 65.667 27.3298 65.667C26.081 65.667 24.8416 65.2843 23.6117 64.5191C22.3818 63.7539 21.3317 62.6416 20.4613 61.1824C19.7422 60.0434 18.8245 59.1181 17.7082 58.4062C16.5918 57.6944 15.6552 57.2673 14.8983 57.1249L13.763 56.9647C12.9683 56.9647 12.4196 57.0448 12.1168 57.205C11.8141 57.3652 11.7195 57.5698 11.833 57.819C11.9465 58.0681 12.1168 58.3172 12.3439 58.5664C12.5709 58.8155 12.8169 59.0291 13.0818 59.207L13.4792 59.474C14.3117 59.8299 15.1348 60.5061 15.9484 61.5027C16.7621 62.4993 17.3581 63.4069 17.7365 64.2255L18.3042 65.4534C18.7962 66.8059 19.6287 67.9003 20.8018 68.7368C21.975 69.5732 23.2427 70.107 24.6051 70.3384C25.9675 70.5697 27.2825 70.6943 28.5503 70.7121C29.818 70.7299 30.8682 70.6676 31.7007 70.5252L33.0063 70.3117C33.0063 71.6642 33.0158 73.2391 33.0347 75.0365C33.0536 76.8339 33.0631 77.8038 33.0631 77.9461C33.0631 78.5868 32.8171 79.1207 32.3251 79.5478C31.8332 79.9749 31.0763 80.0994 30.0545 79.9215C21.2749 77.1809 14.113 72.2425 8.569 65.1064C3.02495 57.9702 0.25293 49.9354 0.25293 41.0018C0.25293 33.5631 2.20186 26.7028 6.09972 20.4208C9.99758 14.1389 15.2862 9.1649 21.9655 5.49894C28.6449 1.83298 35.9392 0 43.8484 0ZM16.7715 58.8867C16.8851 58.6376 16.7526 58.424 16.3742 58.2461C15.9957 58.1393 15.7498 58.1749 15.6362 58.3528C15.5227 58.602 15.6552 58.8155 16.0336 58.9935C16.3742 59.207 16.6202 59.1714 16.7715 58.8867ZM18.5312 60.7019C18.7962 60.5239 18.7583 60.2392 18.4177 59.8477C18.0393 59.5274 17.7365 59.474 17.5095 59.6875C17.2446 59.8655 17.2824 60.1502 17.623 60.5417C18.0014 60.8976 18.3042 60.951 18.5312 60.7019ZM20.2342 63.1043C20.5748 62.8552 20.5748 62.5171 20.2342 62.09C19.9315 61.6273 19.6098 61.5205 19.2692 61.7696C18.9286 61.9476 18.9286 62.2679 19.2692 62.7306C19.6098 63.1933 19.9315 63.3179 20.2342 63.1043ZM22.6183 65.3466C22.9211 65.0619 22.8454 64.7238 22.3913 64.3323C21.9371 63.9052 21.5587 63.8518 21.256 64.1721C20.9154 64.4568 20.9911 64.795 21.483 65.1865C21.9371 65.6136 22.3156 65.667 22.6183 65.3466ZM25.8539 66.6813C25.9675 66.2898 25.7215 66.0051 25.116 65.8271C24.5483 65.6848 24.1888 65.8093 24.0375 66.2008C23.8861 66.5923 24.1321 66.8593 24.7754 67.0016C25.343 67.2152 25.7026 67.1084 25.8539 66.6813ZM29.4301 66.9483C29.4301 66.4856 29.1085 66.2898 28.4651 66.361C27.8596 66.361 27.5569 66.5568 27.5569 66.9483C27.5569 67.411 27.8785 67.6067 28.5219 67.5355C29.1274 67.5355 29.4301 67.3398 29.4301 66.9483ZM32.7225 66.4144C32.6468 66.0229 32.3062 65.8627 31.7007 65.9339C31.0952 66.0407 30.8303 66.3076 30.906 66.7347C30.9817 67.1618 31.3223 67.3042 31.9278 67.1618C32.5333 67.0194 32.7982 66.7703 32.7225 66.4144Z" fill="white"/>
</svg>
