<svg width="94" height="62" viewBox="0 0 94 62" fill="none" xmlns="http://www.w3.org/2000/svg">
<path d="M47.5234 0H48.0438C52.8506 0.0165495 77.2058 0.182046 83.7727 1.84803C85.7579 2.35648 87.5669 3.34754 89.0189 4.72217C90.471 6.09681 91.5151 7.80687 92.0471 9.68147C92.6377 11.7777 93.0529 14.5525 93.3335 17.4156L93.392 17.9893L93.5207 19.4236L93.5675 19.9973C93.9475 25.0394 93.9943 29.7615 94.0002 30.7931V31.2069C93.9943 32.2771 93.9417 37.3192 93.5207 42.5709L93.4739 43.1501L93.4213 43.7238C93.1289 46.8793 92.6962 50.0126 92.0471 52.3185C91.5151 54.1931 90.471 55.9032 89.0189 57.2778C87.5669 58.6525 85.7579 59.6435 83.7727 60.152C76.9895 61.8731 51.2074 61.9945 47.6345 62H46.8041C44.9972 62 37.524 61.9669 29.6882 61.7131L28.6941 61.68L28.1854 61.658L27.1854 61.6194L26.1855 61.5807C19.6947 61.3104 13.5137 60.8746 10.6659 60.1465C8.68143 59.6385 6.8729 58.6483 5.42095 57.2746C3.969 55.901 2.92444 54.1921 2.39159 52.3185C1.7425 50.0182 1.30978 46.8793 1.0174 43.7238L0.97062 43.1446L0.92384 42.5709C0.633584 38.833 0.473664 35.0871 0.444336 31.3393L0.444336 30.6607C0.456031 29.4747 0.502812 25.3759 0.818583 20.8524L0.859516 20.2842L0.877059 19.9973L0.92384 19.4236L1.05249 17.9893L1.11096 17.4156C1.39165 14.5525 1.80683 11.7722 2.39744 9.68147C2.9294 7.80687 3.97355 6.09681 5.42556 4.72217C6.87757 3.34754 8.68658 2.35648 10.6718 1.84803C13.5196 1.13088 19.7005 0.689563 26.1913 0.413737L27.1854 0.375122L28.1912 0.342024L28.6941 0.325475L29.6941 0.286859C35.2593 0.118073 40.8268 0.0242823 46.3948 0.00551676L47.5234 0ZM37.869 17.708V44.2865L62.1775 31.0028L37.869 17.708Z" fill="white"/>
</svg>
